<?xml version="1.0" encoding="utf-8"?>
<!-- Generator: Adobe Illustrator 16.0.0, SVG Export Plug-In . SVG Version: 6.00 Build 0)  -->
<!DOCTYPE svg PUBLIC "-//W3C//DTD SVG 1.1//EN" "http://www.w3.org/Graphics/SVG/1.1/DTD/svg11.dtd">
<svg version="1.1" id="Livello_1" xmlns="http://www.w3.org/2000/svg" xmlns:xlink="http://www.w3.org/1999/xlink" x="0px" y="0px"
	 width="481.156px" height="258.092px" viewBox="0 0 481.156 258.092" enable-background="new 0 0 481.156 258.092"
	 xml:space="preserve">
<g>
	<g>
		<g>
			<path fill="#FFFFFF" d="M38.204,216.124l10.565,21.053H27.642L38.204,216.124z M4.92,256.951h12.879l5.517-10.787h29.705
				l5.616,10.787h12.975l-27.292-52.048h-12.08L4.92,256.951z"/>
			<path fill="#FFFFFF" d="M111.73,256.951h9.868v-36.874h-11.284v26.312c-3.604,1.861-6.837,3.094-11.583,3.094
				c-6.837,0-9.621-2.945-9.621-9.135v-20.271H77.801v21.723c0,13.137,8.652,16.293,18.196,16.293
				c5.619-0.135,11.632-2.146,15.011-4.82L111.73,256.951z"/>
			<path fill="#FFFFFF" d="M155.727,249.394c-7.631,0-11.731-4.026-11.731-10.911c0-6.897,4.101-10.787,11.731-10.787
				c5.319,0,8.772,0.994,12.651,3.02v15.673C164.5,248.4,161.046,249.394,155.727,249.394 M153.487,258.092
				c6.042,0,12.083-2.075,15.536-5.155l0.771,4.014h9.868v-52.048h-11.284v17.622c-3.456-2.237-8.849-3.591-14.292-3.591
				c-13.944,0-21.574,7.395-21.574,19.549C132.511,250.747,140.191,258.092,153.487,258.092"/>
			<path fill="#FFFFFF" d="M193.757,214.696h11.284v-9.793h-11.284V214.696z M193.757,256.951h11.284v-36.874h-11.284V256.951z"/>
		</g>
	</g>
	<path fill="#FFFFFF" d="M146.901,83.082c0,35.247-28.585,63.82-63.832,63.82c-35.246,0-63.807-28.573-63.807-63.82
		c0-35.259,28.561-63.807,63.807-63.807C118.316,19.275,146.901,47.823,146.901,83.082z M83.069,0C37.185,0,0,37.21,0,83.082
		c0,45.887,37.185,83.085,83.069,83.085c45.886,0,83.098-37.198,83.098-83.085C166.167,37.21,128.955,0,83.069,0z"/>
	<path fill="#FFFFFF" d="M251.89,83.082c0,35.247-28.586,63.82-63.832,63.82c-35.247,0-63.807-28.573-63.807-63.82
		c0-35.259,28.561-63.807,63.807-63.807C223.304,19.275,251.89,47.823,251.89,83.082z M188.058,0
		c-45.885,0-83.07,37.21-83.07,83.082c0,45.886,37.185,83.085,83.07,83.085c45.885,0,83.098-37.199,83.098-83.085
		C271.156,37.21,233.943,0,188.058,0z"/>
	<path fill="#FFFFFF" d="M356.89,83.082c0,35.248-28.586,63.82-63.832,63.82s-63.807-28.572-63.807-63.82
		c0-35.259,28.561-63.807,63.807-63.807S356.89,47.823,356.89,83.082z M293.058,0c-45.885,0-83.07,37.21-83.07,83.082
		c0,45.886,37.185,83.085,83.07,83.085s83.098-37.199,83.098-83.085C376.156,37.21,338.943,0,293.058,0z"/>
	<path fill="#FFFFFF" d="M461.89,83.082c0,35.248-28.586,63.82-63.832,63.82s-63.807-28.572-63.807-63.82
		c0-35.259,28.561-63.807,63.807-63.807S461.89,47.823,461.89,83.082z M398.058,0c-45.885,0-83.07,37.21-83.07,83.082
		c0,45.886,37.186,83.085,83.07,83.085s83.098-37.199,83.098-83.085C481.156,37.21,443.943,0,398.058,0z"/>
</g>
</svg>
