<?xml version="1.0" encoding="utf-8"?>
<!-- Generator: Adobe Illustrator 16.0.0, SVG Export Plug-In . SVG Version: 6.00 Build 0)  -->
<!DOCTYPE svg PUBLIC "-//W3C//DTD SVG 1.1//EN" "http://www.w3.org/Graphics/SVG/1.1/DTD/svg11.dtd">
<svg version="1.1" id="Isolation_Mode" xmlns="http://www.w3.org/2000/svg" xmlns:xlink="http://www.w3.org/1999/xlink" x="0px"
	 y="0px" width="772.879px" height="259.104px" viewBox="0 0 772.879 259.104" enable-background="new 0 0 772.879 259.104"
	 xml:space="preserve">
<g>
	<path fill="#FFFFFF" d="M255.045,110.059v4.061h10.559V252.2h-10.559v4.062h47.516V252.2h-10.56V144.579
		c0-12.59,5.28-29.646,11.777-30.459c6.498-0.812,6.092,5.279,6.092,8.528v45.892h23.149v-43.455
		c0-15.025-10.966-16.65-18.682-17.057c-7.717-0.406-13.809-0.812-22.337,13.402v-11.371H255.045z"/>
	<path fill="#FFFFFF" d="M608.368,110.059v4.061h10.56V252.2h-10.56v4.062h47.517V252.2h-10.56V144.579
		c0-12.59,5.279-29.646,11.777-30.459s6.092,5.279,6.092,8.528v45.892h23.149v-43.455c0-15.025-10.966-16.65-18.682-17.057
		c-7.717-0.406-13.809-0.812-22.337,13.402v-11.371H608.368z"/>
	<polygon fill="#FFFFFF" points="336.674,252.2 336.674,256.261 384.19,256.261 384.19,252.2 373.631,252.2 373.631,0 333.426,0 
		333.426,4.061 347.233,4.061 347.233,252.2 	"/>
	<polygon fill="#FFFFFF" points="0,41.831 0,45.891 13.402,45.891 13.402,252.2 0,252.2 0,256.261 31.271,256.261 31.271,252.2 
		17.87,252.2 17.87,82.037 49.141,256.261 68.635,256.261 95.845,63.761 95.845,252.2 85.285,252.2 85.285,256.261 136.863,256.261 
		136.863,252.2 126.304,252.2 126.304,45.891 136.863,45.891 136.863,41.831 94.627,41.831 70.26,214.837 39.395,41.831 	"/>
	<path fill="#FFFFFF" d="M733.25,108.401c-21.887,0-39.629,11.651-39.629,33.538v82.442c0,21.887,17.742,33.537,39.629,33.537
		s39.629-11.65,39.629-33.537v-82.442C772.879,120.052,755.137,108.401,733.25,108.401z M746.46,241.438
		c0,7.295-5.915,13.21-13.21,13.21s-13.209-5.915-13.209-13.21V124.882c0-7.296,5.914-13.21,13.209-13.21s13.21,5.914,13.21,13.21
		V241.438z"/>
	<path fill="#FFFFFF" d="M456.073,106.809c-10.56,0-16.651,2.844-23.961,13.402V0h-40.205v4.061h13.808V252.2h-10.56v4.062h36.957
		l0.609-11.777c5.279,7.716,10.356,12.996,23.758,12.996s25.991-9.341,25.991-24.773v-101.53
		C482.471,117.774,473.537,106.809,456.073,106.809z M456.073,240.829c0,4.468-2.03,14.62-11.371,9.747s-12.59-17.057-12.59-28.022
		V148.64c0-21.118,2.843-23.962,8.528-32.084s15.433-4.468,15.433,5.686V240.829z"/>
	<path fill="#FFFFFF" d="M547.247,108.401c-21.886,0-39.629,11.651-39.629,33.538v82.442c0,21.887,17.743,33.537,39.629,33.537
		c21.887,0,39.63-11.65,39.63-33.537v-82.442C586.877,120.052,569.134,108.401,547.247,108.401z M560.457,241.438
		c0,7.295-5.914,13.21-13.21,13.21c-7.295,0-13.21-5.915-13.21-13.21V124.882c0-7.296,5.915-13.21,13.21-13.21
		c7.296,0,13.21,5.914,13.21,13.21V241.438z"/>
	<path fill="#FFFFFF" d="M231.489,252.2V128.333c0-12.589-11.777-18.274-24.367-18.274s-21.931,5.279-26.397,19.493v-17.464h-21.932
		v54.015h21.932c0-25.586,4.061-48.734,16.65-49.953c4.467-0.812,7.717,5.28,7.717,11.778v53.607
		c-8.936-10.153-19.088-8.528-24.367-8.528s-25.992,4.061-26.398,23.555v44.267c0,15.027,17.058,18.275,23.555,18.275
		c6.498,0,17.261,0,26.602-16.65l0.609,13.808h38.175V252.2H231.489z M205.092,230.676c0,6.498-8.529,19.899-14.621,20.712
		c-4.445,0.593-9.746-3.655-9.746-11.372v-45.484c0-12.996,7.716-15.027,13.808-15.027s10.56,6.498,10.56,12.59V230.676z"/>
</g>
</svg>
