<?xml version="1.0" encoding="utf-8"?>
<!-- Generator: Adobe Illustrator 16.0.0, SVG Export Plug-In . SVG Version: 6.00 Build 0)  -->
<!DOCTYPE svg PUBLIC "-//W3C//DTD SVG 1.1//EN" "http://www.w3.org/Graphics/SVG/1.1/DTD/svg11.dtd">
<svg version="1.1" id="Layer_1" xmlns="http://www.w3.org/2000/svg" xmlns:xlink="http://www.w3.org/1999/xlink" x="0px" y="0px"
	 width="338.019px" height="163.283px" viewBox="0 0 338.019 163.283" enable-background="new 0 0 338.019 163.283"
	 xml:space="preserve">
<g>
	<g>
		<g>
			<g>
				<path fill="#FFFFFF" d="M0.003-0.001v163.22h163.22V-0.001H0.003z M81.612,146.416c-31.425,0-47.964-24.062-47.964-52.271
					c0-35.911,24.765-77.381,47.964-77.381c23.196,0,47.983,41.47,47.983,77.381C129.595,122.354,113.013,146.416,81.612,146.416z"
					/>
			</g>
		</g>
	</g>
	<g>
		<g>
			<path fill="#FFFFFF" d="M174.813,0.068v163.21h163.21V0.068H174.813z M232.44,101.514h-11.419V76.365h-0.12l-6.793,25.148h-9.012
				l-6.808-25.148h-0.099v25.148h-11.434V62.331h17.186l5.613,23.052h0.094l5.619-23.052h17.172V101.514z M273.066,72.365h-10.999
				v29.148h-12.066V72.365h-10.973V62.331h34.038V72.365z M296.226,102.455c-12.688,0-19.861-8.947-19.861-20.523
				c0-12.361,7.789-20.528,19.861-20.528c10.766,0.044,16.698,5.693,17.721,15.509h-11.734c-0.219-1.411-1.328-5.756-6.299-5.756
				c-5.668,0-7.483,5.494-7.483,10.775c0,5.271,1.815,10.752,7.483,10.752c4.043,0,5.645-2.854,6.354-6.551h11.859
				C314.126,94.039,307.699,102.455,296.226,102.455z"/>
		</g>
	</g>
</g>
</svg>
