<?xml version="1.0" encoding="utf-8"?>
<!-- Generator: Adobe Illustrator 16.0.0, SVG Export Plug-In . SVG Version: 6.00 Build 0)  -->
<!DOCTYPE svg PUBLIC "-//W3C//DTD SVG 1.1//EN" "http://www.w3.org/Graphics/SVG/1.1/DTD/svg11.dtd">
<svg version="1.1" id="Layer_1" xmlns="http://www.w3.org/2000/svg" xmlns:xlink="http://www.w3.org/1999/xlink" x="0px" y="0px"
	 width="338.02px" height="163.283px" viewBox="0 0 338.02 163.283" enable-background="new 0 0 338.02 163.283"
	 xml:space="preserve">
<g>
	<g>
		<g>
			<path fill-rule="evenodd" clip-rule="evenodd" fill="#FFFFFF" d="M0,0v163.216h163.226V0H0z M81.612,146.416
				c-31.425,0-47.964-24.063-47.964-52.271c0-35.911,24.765-77.38,47.964-77.38c23.196,0,47.983,41.47,47.983,77.38
				C129.595,122.353,113.014,146.416,81.612,146.416z"/>
		</g>
	</g>
	<g>
		<g>
			<path fill="#FFFFFF" d="M174.811,0.07v163.213H338.02V0.07H174.811z M222.843,101.629l-1.326-19.105h-0.69l-6.368,15.127h-7.626
				l-7.146-15.127h-0.709l-1.153,19.105h-11.267l2.637-39.503h11.035l10.018,22.44h0.706l9.638-22.44h11.19l2.651,39.503H222.843z
				 M273.859,72.138h-11.512v29.491h-11.981V72.138h-11.502l-0.691-10.012h36.384L273.859,72.138z M312.127,90.424
				c0,7.264-4.128,11.695-16.354,11.695c-8.56,0-16.432-1.99-16.432-1.99l0.766-9.398c0,0,8.789,1.756,15.666,1.756
				c3.591,0,5.12-0.609,5.12-2.217v-0.148c0-1.529-0.688-2.139-3.439-2.906l-7.946-2.141c-6.802-1.832-10.472-4.509-10.472-11.768
				v-0.383c0-9.781,7.108-11.999,17.579-11.999c6.876,0,13.679,1.378,13.679,1.378l-0.843,9.551c0,0-7.334-1.525-13.297-1.525
				c-4.433,0-5.883,0.686-5.883,2.519v0.307c0,1.453,0.764,1.909,3.438,2.6l6.724,1.756c8.41,2.217,11.693,5.272,11.693,12.077
				V90.424z"/>
		</g>
	</g>
</g>
</svg>
