<?xml version="1.0" encoding="utf-8"?>
<!-- Generator: Adobe Illustrator 16.0.0, SVG Export Plug-In . SVG Version: 6.00 Build 0)  -->
<!DOCTYPE svg PUBLIC "-//W3C//DTD SVG 1.1//EN" "http://www.w3.org/Graphics/SVG/1.1/DTD/svg11.dtd">
<svg version="1.1" id="Layer_1" xmlns="http://www.w3.org/2000/svg" xmlns:xlink="http://www.w3.org/1999/xlink" x="0px" y="0px"
	 width="781.987px" height="175px" viewBox="0 0 781.987 175" enable-background="new 0 0 781.987 175" xml:space="preserve">
<g>
	<defs>
		<path id="SVGID_1_" d="M45.958,109.896L0.176,83.563c-0.088,1.318-0.146,2.648-0.167,3.99c-0.062,4.942,0.362,9.892,1.257,14.768
			c1.625,8.842,4.731,17.035,9.035,24.384c5.446,9.353,12.818,17.333,21.481,23.505c5.832,4.153,12.279,7.482,19.059,9.842
			c2.956,1.031,6.025,1.882,9.127,2.552c4.379,0.923,8.902,1.463,13.524,1.593h4.211c2.469-0.071,4.959-0.264,7.458-0.584
			c10.554-1.349,20.806-4.914,29.892-10.469c8.778-5.37,16.297-12.447,22.165-20.692c6.174-8.667,10.517-18.622,12.607-29.237
			c0.271-1.367,0.504-2.746,0.699-4.136c0.471-3.419,0.717-6.915,0.717-10.466c0-0.662-0.008-1.325-0.026-1.984
			c-0.084-3.113-0.366-6.254-0.85-9.407c-1.24-8.046-3.744-15.858-7.443-23.093L45.958,109.896z M45.958,90.866L3.34,66.361
			c-0.579,1.875-1.083,3.781-1.518,5.708c-0.194,0.869-0.375,1.742-0.539,2.622l44.675,25.702l92.811-53.389
			c-0.914-1.38-1.87-2.73-2.869-4.049c-0.439-0.576-0.888-1.146-1.344-1.708c-0.245-0.305-0.492-0.607-0.742-0.909L45.958,90.866z
			 M45.958,71.857L9.945,51.137c-1.367,2.392-2.603,4.859-3.7,7.385l39.713,22.837l82.098-47.218
			c-2.104-2.02-4.324-3.922-6.646-5.688L45.958,71.857z M45.958,52.83L19.692,37.721c-1.87,2.059-3.629,4.222-5.264,6.474
			l31.53,18.146l67.812-39.005c-2.839-1.664-5.792-3.145-8.835-4.429L45.958,52.83z"/>
	</defs>
	<use xlink:href="#SVGID_1_"  overflow="visible" fill="#FFFFFF"/>
	<clipPath id="SVGID_2_">
		<use xlink:href="#SVGID_1_"  overflow="visible"/>
	</clipPath>
	<rect x="10.987" clip-path="url(#SVGID_2_)" fill="none" width="175" height="175"/>
</g>
<polygon fill="#FFFFFF" points="191.088,142.002 191.088,137.872 768.413,137.872 768.413,145.626 191.088,145.626 "/>
<g>
	<defs>
		<rect id="SVGID_3_" y="18.895" width="781.987" height="145.329"/>
	</defs>
	<clipPath id="SVGID_4_">
		<use xlink:href="#SVGID_3_"  overflow="visible"/>
	</clipPath>
	<path clip-path="url(#SVGID_4_)" fill="#FFFFFF" d="M716.503,113.642c-0.46-0.446-0.738-1.086-0.855-1.918
		c-0.111-0.836-0.17-1.929-0.17-3.292v-6.061V54.062v-6.066c0-1.359,0.059-2.458,0.17-3.295c0.117-0.826,0.396-1.462,0.855-1.917
		c0.451-0.451,1.095-0.794,1.93-1.027c0.823-0.222,1.149-0.376,1.459-0.447v-2.545h-4.414h-16.896v0.001h-4.412v2.544
		c0.311,0.079,0.631,0.221,1.459,0.451c0.836,0.229,1.473,0.572,1.931,1.023c0.453,0.454,0.739,1.093,0.854,1.917
		c0.107,0.837,0.168,1.936,0.168,3.295v60.435c0,1.363-0.061,2.456-0.168,3.292c-0.115,0.832-0.401,1.472-0.854,1.918
		c-0.458,0.456-1.095,0.8-1.931,1.022c-0.828,0.233-1.148,0.38-1.459,0.452v2.542h25.722v-2.542
		c-0.31-0.072-0.632-0.219-1.459-0.452C717.598,114.441,716.954,114.098,716.503,113.642 M760.364,109.273
		c-2.649-2.878-4.803-5.256-6.469-7.153c-2.421-2.711-4.68-5.279-6.799-7.7c-2.112-2.412-4.119-4.802-6-7.144
		c-1.902-2.337-3.69-4.706-5.393-7.076c-1.7-2.385-3.384-4.942-5.042-7.661l1.246-1.586c1.883-2.413,4.117-5.191,6.689-8.328
		c2.562-3.137,5.21-6.235,7.933-9.295c2.724-3.058,5.438-5.889,8.157-8.503c2.729-2.608,5.178-4.588,7.373-5.948v-0.113h-18.472
		c-0.611,1.585-1.532,3.531-2.79,5.832c-1.239,2.309-2.698,4.786-4.35,7.425c-1.668,2.644-3.404,5.393-5.223,8.224
		c-1.812,2.832-3.622,5.535-5.438,8.104c-1.817,2.571-3.502,4.948-5.043,7.145c-1.551,2.183-2.857,3.953-3.912,5.324
		c1.892,2.569,3.604,4.91,5.159,7.021c1.546,2.125,3.021,4.14,4.416,6.068c1.396,1.931,2.761,3.817,4.08,5.671
		c1.327,1.855,2.701,3.8,4.138,5.84c1.51,2.115,2.855,4.193,4.029,6.226c1.168,2.044,2.245,4.048,3.233,6.014l26.637,0.228
		C765.726,115.005,763.008,112.141,760.364,109.273 M555.866,83.879l10.885-31.857l10.655,31.857H555.866z M600.193,99.972
		l-18.028-51.684c-0.835-2.342-1.375-4.251-1.645-5.728c-0.27-1.476-0.475-2.744-0.625-3.794H557.35v2.545
		c0.312,0.079,0.633,0.225,1.466,0.447c0.828,0.233,1.471,0.576,1.923,1.027c0.457,0.454,0.739,1.091,0.858,1.917
		c0.061,0.484,0.106,1.07,0.132,1.726c-0.063,1.818-0.38,3.675-0.985,5.148l-12.586,31.167c-2.334,5.827-4.349,10.698-6.004,14.622
		c-1.668,3.935-3.082,7.223-4.25,9.862c-1.171,2.647-2.193,4.768-3.061,6.353c-0.871,1.587-1.643,2.951-2.328,4.079h14.283
		c0.154-1.891,0.744-5.118,1.759-9.693c1.021-4.568,2.849-10.862,5.499-18.875h25.05l3.4,10.093
		c1.506,4.526,2.722,8.352,3.626,11.444c0.911,3.099,1.435,5.442,1.584,7.031h20.07c-0.833-1.589-1.87-3.719-3.119-6.406
		C603.424,108.573,601.921,104.814,600.193,99.972 M680.224,38.766h-16.891v0.001h-4.413v2.544c0.309,0.079,0.633,0.221,1.457,0.451
		c0.836,0.229,1.48,0.572,1.933,1.023c0.453,0.454,0.739,1.093,0.854,1.917c0.11,0.837,0.17,1.936,0.17,3.295v25.227H632.84v-9.472
		v0.003V47.997c0-1.359,0.055-2.458,0.17-3.295c0.114-0.826,0.396-1.462,0.849-1.917c0.456-0.451,1.098-0.794,1.933-1.027
		c0.831-0.222,1.149-0.376,1.461-0.447v-2.545h-4.412h-16.896v0.001h-4.412v2.544c0.312,0.079,0.636,0.221,1.468,0.451
		c0.825,0.229,1.471,0.572,1.925,1.023c0.456,0.454,0.738,1.093,0.855,1.917c0.107,0.812,0.164,1.86,0.164,3.158v1.825
		c0,0.025,0.004,0.048,0.004,0.071v54.416c0,0.092,0,0.194-0.004,0.289v4.113c0,1.292-0.06,2.341-0.16,3.15
		c-0.121,0.832-0.403,1.472-0.858,1.918c-0.455,0.456-1.101,0.8-1.927,1.022c-0.831,0.233-1.151,0.38-1.467,0.452v2.542h25.72
		v-2.542c-0.312-0.072-0.63-0.219-1.461-0.452c-0.835-0.223-1.477-0.566-1.933-1.022c-0.453-0.446-0.734-1.086-0.849-1.918
		c-0.115-0.836-0.17-1.929-0.17-3.292V92.67v0.01V78.432h30.493v30c0,1.363-0.06,2.456-0.17,3.292
		c-0.114,0.832-0.4,1.472-0.85,1.918c-0.459,0.456-1.102,0.8-1.933,1.022c-0.828,0.233-1.152,0.38-1.461,0.452v2.542h25.717v-2.542
		c-0.312-0.072-0.633-0.219-1.461-0.452c-0.832-0.223-1.475-0.566-1.929-1.022c-0.46-0.446-0.739-1.086-0.854-1.918
		c-0.11-0.836-0.166-1.929-0.166-3.292V92.67l-0.118,0.349V63.416l0.114,0.339V47.997c0-1.359,0.06-2.458,0.17-3.295
		c0.114-0.826,0.394-1.462,0.85-1.917c0.458-0.451,1.102-0.794,1.933-1.027c0.824-0.222,1.148-0.376,1.461-0.447v-2.545H680.224z
		 M512.959,103.148c-0.862,2.719-2.021,4.8-3.453,6.238c-1.438,1.429-3.079,2.362-4.934,2.77c-1.851,0.42-3.758,0.625-5.722,0.625
		c-1.892,0-3.363-0.126-4.422-0.388c-1.055-0.278-1.868-0.702-2.434-1.312c-0.565-0.6-0.923-1.395-1.085-2.371
		c-0.146-0.986-0.218-2.242-0.218-3.75V71.979h6.79c6.126,0,10.456,1.567,12.984,4.699c2.525,3.137,3.804,8.262,3.804,15.362
		C514.271,96.728,513.836,100.43,512.959,103.148 M524.185,72.599c-2.754-1.926-6.345-3.32-10.77-4.198
		c-4.421-0.862-9.807-1.297-16.151-1.297h-6.571V48.288c0-2.043,0.407-3.33,1.239-3.856c0.832-0.534,2.579-0.794,5.222-0.794h9.518
		c2.948,0,5.351,0.11,7.2,0.339c1.855,0.23,3.377,0.76,4.589,1.589c1.209,0.832,2.193,2.078,2.954,3.738
		c0.75,1.666,1.506,3.889,2.257,6.687h4.2V38.766H473.8v0.001h-4.41v2.544c0.311,0.079,0.631,0.221,1.458,0.451
		c0.834,0.229,1.478,0.572,1.931,1.023c0.456,0.454,0.737,1.093,0.853,1.917c0.111,0.837,0.169,1.936,0.169,3.295v15.758
		l0.004-0.003V92.68l-0.004-0.01v15.762c0,1.363-0.058,2.456-0.169,3.292c-0.115,0.832-0.396,1.472-0.853,1.918
		c-0.453,0.456-1.097,0.8-1.931,1.022c-0.827,0.233-1.147,0.38-1.458,0.452v2.542h29.682c4.086,0,8.111-0.222,12.085-0.686
		c3.96-0.442,7.489-1.563,10.597-3.339c3.095-1.772,5.587-4.421,7.479-7.929c1.89-3.523,2.83-8.341,2.83-14.46
		c0-4.384-0.625-8.111-1.87-11.163C528.944,77.015,526.945,74.521,524.185,72.599 M441.101,76.115
		c-1.934,3.588-5.314,5.381-10.147,5.381h-7.934V47.938c0-0.745,0.055-1.413,0.162-1.981c0.122-0.562,0.386-1.016,0.79-1.36
		c0.424-0.339,1.069-0.58,1.937-0.742c0.871-0.146,2.062-0.218,3.567-0.218c2.039,0,3.95,0.26,5.732,0.794
		c1.766,0.526,3.308,1.458,4.639,2.774c1.321,1.327,2.351,3.085,3.062,5.276c0.72,2.184,1.073,4.947,1.073,8.271
		C443.981,67.408,443.022,72.524,441.101,76.115 M452.771,42.336c-2.685-1.543-5.767-2.535-9.238-2.948
		c-3.479-0.411-7.072-0.623-10.763-0.623h-26.756v0.001h-4.416v2.544c0.308,0.079,0.631,0.221,1.46,0.451
		c0.836,0.229,1.479,0.572,1.929,1.023c0.457,0.454,0.74,1.093,0.856,1.917c0.111,0.837,0.171,1.936,0.171,3.295v60.435
		c0,1.363-0.06,2.456-0.171,3.292c-0.116,0.832-0.399,1.472-0.856,1.918c-0.45,0.456-1.094,0.8-1.929,1.022
		c-0.829,0.233-1.152,0.38-1.46,0.452v2.542h25.831v-2.542c-0.313-0.072-0.635-0.219-1.463-0.452
		c-0.832-0.223-1.473-0.566-1.929-1.022c-0.454-0.446-0.734-1.086-0.856-1.918c-0.111-0.836-0.162-1.929-0.162-3.292V86.377h7.816
		c4.083,0,7.972-0.309,11.686-0.91c3.689-0.607,6.962-1.803,9.794-3.571c2.834-1.78,5.084-4.292,6.748-7.54
		c1.665-3.248,2.498-7.555,2.498-12.918c0-5.143-0.798-9.226-2.379-12.246C457.591,46.171,455.452,43.887,452.771,42.336
		 M384.297,106.664c-0.555,1.818-1.376,3.178-2.425,4.08c-1.061,0.9-2.554,1.476-4.49,1.697c-1.914,0.223-4.585,0.34-7.985,0.34
		c-3.176,0-5.649-0.117-7.429-0.34c-1.77-0.222-3.109-0.639-4.017-1.249c-0.909-0.599-1.474-1.482-1.697-2.659
		c-0.236-1.173-0.34-2.666-0.34-4.476V79.226h10.646c0.91,0,1.986,0.047,3.236,0.117c1.244,0.079,2.526,0.184,3.846,0.342
		c1.326,0.146,2.592,0.397,3.806,0.738c1.208,0.339,2.229,0.772,3.055,1.307v-10.1c-0.826,0.531-1.847,0.95-3.055,1.251
		c-1.214,0.306-2.48,0.546-3.806,0.738c-1.32,0.188-2.602,0.307-3.846,0.339c-1.25,0.046-2.326,0.065-3.236,0.065h-10.646v-26.19
		c0-1.742,0.243-2.876,0.731-3.402c0.489-0.534,1.532-0.794,3.117-0.794h8.504c2.95,0,5.339,0.11,7.201,0.339
		c1.846,0.23,3.376,0.76,4.583,1.589c1.21,0.832,2.19,2.078,2.948,3.738c0.76,1.666,1.513,3.889,2.267,6.687h4.2V38.766h-50.337
		v0.001h-4.415v2.544c0.311,0.079,0.631,0.221,1.462,0.451c0.83,0.229,1.472,0.572,1.93,1.023c0.452,0.454,0.736,1.093,0.85,1.917
		c0.113,0.837,0.172,1.936,0.172,3.295v60.435c0,1.363-0.06,2.456-0.172,3.292c-0.113,0.832-0.398,1.472-0.847,1.918
		c-0.461,0.456-1.103,0.8-1.933,1.022c-0.826,0.233-1.151,0.38-1.465,0.452v2.542h56.561V99.299h-5.212
		C385.455,102.39,384.871,104.85,384.297,106.664 M306.433,103.148c-0.87,2.719-2.025,4.8-3.461,6.238
		c-1.435,1.429-3.081,2.362-4.933,2.77c-1.847,0.42-3.76,0.625-5.726,0.625c-1.886,0-3.357-0.126-4.419-0.388
		c-1.051-0.278-1.87-0.702-2.434-1.312c-0.564-0.6-0.929-1.395-1.084-2.371c-0.146-0.986-0.225-2.242-0.225-3.75V71.979h6.808
		c6.116,0,10.442,1.567,12.98,4.699c2.527,3.137,3.796,8.262,3.796,15.362C307.736,96.728,307.296,100.43,306.433,103.148
		 M317.654,72.599c-2.758-1.926-6.354-3.32-10.764-4.198c-4.424-0.862-9.814-1.297-16.159-1.297h-6.58V48.288
		c0-2.043,0.415-3.33,1.255-3.856c0.828-0.534,2.563-0.794,5.212-0.794h9.523c2.943,0,5.343,0.11,7.194,0.339
		c1.851,0.23,3.387,0.76,4.596,1.589c1.207,0.832,2.183,2.078,2.949,3.738c0.749,1.666,1.503,3.889,2.264,6.687h4.197V38.766
		h-54.076v0.001h-4.412v2.544c0.313,0.079,0.633,0.221,1.46,0.451c0.835,0.229,1.478,0.572,1.928,1.023
		c0.454,0.454,0.74,1.093,0.856,1.917c0.11,0.817,0.163,1.876,0.167,3.183v1.658c0.003,0.035,0.003,0.068,0.003,0.104v14.107
		l0.002-0.003v28.927l-0.002-0.008v11.691c0,0.06,0,0.126-0.003,0.191v3.992c-0.004,1.304-0.057,2.361-0.167,3.179
		c-0.116,0.832-0.402,1.472-0.853,1.918c-0.455,0.456-1.099,0.8-1.932,1.022c-0.826,0.233-1.147,0.38-1.463,0.452v2.542h29.689
		c4.08,0,8.105-0.222,12.069-0.686c3.973-0.442,7.508-1.563,10.602-3.339c3.108-1.772,5.593-4.421,7.487-7.929
		c1.888-3.523,2.836-8.341,2.836-14.46c0-4.384-0.625-8.111-1.874-11.163C322.411,77.015,320.412,74.521,317.654,72.599
		 M248.901,109.098c-1.284,0.569-2.663,1.08-4.137,1.529c-1.473,0.455-3.153,0.815-5.038,1.081c-1.89,0.271-4.088,0.396-6.577,0.396
		c-4.837,0-8.787-0.911-11.85-2.717c-3.054-1.816-5.462-4.314-7.189-7.481c-1.743-3.174-2.939-6.914-3.575-11.226
		c-0.642-4.302-0.965-8.992-0.965-14.055c0-3.927,0.189-7.915,0.568-11.961c0.373-4.04,1.28-7.67,2.715-10.882
		c1.438-3.208,3.553-5.843,6.353-7.876c2.796-2.05,6.614-3.052,11.445-3.052c4.388,0,8.179,1.183,11.388,3.563
		c3.216,2.379,5.205,5.987,5.962,10.822h4.979V41.48c-1.434-0.673-3.118-1.262-5.041-1.755c-1.924-0.493-3.95-0.87-6.063-1.133
		c-2.113-0.262-4.197-0.471-6.237-0.628c-2.042-0.143-3.891-0.222-5.55-0.222c-6.955,0-12.884,0.948-17.798,2.835
		c-4.911,1.89-8.937,4.625-12.077,8.218c-3.136,3.588-5.441,7.972-6.909,13.149c-1.475,5.178-2.215,11.056-2.215,17.625
		c0,6.197,0.74,11.749,2.215,16.669c1.467,4.914,3.739,9.083,6.792,12.518c3.068,3.442,6.938,6.066,11.631,7.881
		c4.679,1.815,10.274,2.714,16.775,2.714c3.245,0,6.232-0.221,8.947-0.677c2.722-0.447,5.202-1.035,7.431-1.759
		c2.228-0.714,4.215-1.49,5.952-2.314c1.74-0.833,3.247-1.625,4.533-2.381l-2.499-4.873
		C251.516,107.948,250.187,108.533,248.901,109.098"/>
</g>
</svg>
