<?xml version="1.0" encoding="utf-8"?>
<!-- Generator: Adobe Illustrator 16.0.0, SVG Export Plug-In . SVG Version: 6.00 Build 0)  -->
<!DOCTYPE svg PUBLIC "-//W3C//DTD SVG 1.1//EN" "http://www.w3.org/Graphics/SVG/1.1/DTD/svg11.dtd">
<svg version="1.1" id="Yota_x5F_logo" xmlns="http://www.w3.org/2000/svg" xmlns:xlink="http://www.w3.org/1999/xlink" x="0px"
	 y="0px" width="131.944px" height="277.795px" viewBox="0 0 131.944 277.795" enable-background="new 0 0 131.944 277.795"
	 xml:space="preserve">
<g>
	<g id="XMLID_1_">
		<g>
			<path fill="#FFFFFF" d="M127.354,171.085v11.71c0,7.351-5.96,13.311-13.311,13.311c-7.369,0-13.319-5.96-13.319-13.311v-11.71
				c0-9.47-3.74-17.91-9.771-24.06c-6.05-6.141-14.189-9.84-23.29-9.851c-9.11,0.01-17.24,3.71-23.3,9.851
				c-6.02,6.149-9.76,14.59-9.76,24.06v11.71c0,7.351-5.97,13.311-13.32,13.311c-7.35,0-13.32-5.96-13.32-13.311v-11.71
				c0-16.61,6.64-31.78,17.4-42.72c7.76-7.93,17.78-13.71,28.98-16.3v-28.03c-11.2-2.59-21.22-8.37-28.98-16.29
				c-10.76-10.94-17.4-26.12-17.4-42.72v-11.71c0-7.36,5.97-13.32,13.32-13.32c7.35,0,13.32,5.96,13.32,13.32v11.71
				c0,9.47,3.74,17.9,9.76,24.05c6.06,6.14,14.19,9.84,23.3,9.85c9.101-0.01,17.24-3.71,23.29-9.85
				c6.03-6.15,9.771-14.58,9.771-24.05v-11.71c0-7.36,5.95-13.32,13.319-13.32c7.351,0,13.311,5.96,13.311,13.32v11.71
				c0.01,16.6-6.641,31.78-17.4,42.72c-7.76,7.92-17.779,13.7-28.97,16.29v28.03c11.19,2.59,21.21,8.37,28.97,16.3
				C120.714,139.305,127.364,154.475,127.354,171.085z"/>
			<path fill="#FFFFFF" d="M126.845,253.265v23.11c0,0.16-0.061,0.31-0.181,0.43c-0.109,0.11-0.26,0.181-0.42,0.181h-5.21
				c-0.31,0-0.57-0.25-0.6-0.551l-0.181-1.84c-1.069,0.891-2.26,1.62-3.55,2.15c-1.7,0.71-3.55,1.05-5.55,1.05
				c-1.6,0-3.17-0.24-4.69-0.729c-1.52-0.5-2.88-1.23-4.06-2.2c-1.18-0.96-2.14-2.19-2.87-3.641
				c-0.74-1.489-1.109-3.199-1.109-5.109c0-2.63,0.729-4.88,2.189-6.63c1.42-1.71,3.23-3.07,5.38-4.07c2.13-0.99,4.5-1.68,7.07-2.09
				c2.34-0.37,4.62-0.57,6.84-0.59c-0.02-2.82-0.64-4.721-1.72-5.811c-1.12-1.149-2.75-1.75-5.03-1.76
				c-1.54,0.01-2.93,0.34-4.21,1.02c-1.29,0.671-2.37,1.57-3.26,2.69c-0.2,0.25-0.561,0.3-0.82,0.13l-4.02-2.82
				c-0.131-0.1-0.23-0.25-0.25-0.409c-0.03-0.16,0.01-0.33,0.109-0.46c1.49-2.011,3.271-3.5,5.32-4.471
				c2.07-0.96,4.62-1.42,7.65-1.42c4.069-0.01,7.329,1.04,9.67,3.21C125.734,244.835,126.845,248.425,126.845,253.265z
				 M119.904,268.585v-10.09c-1.43,0.06-2.94,0.18-4.52,0.36c-1.801,0.18-3.44,0.55-4.95,1.109c-1.49,0.54-2.681,1.32-3.63,2.33
				c-0.9,0.97-1.36,2.22-1.36,3.9c0,1.06,0.21,1.92,0.59,2.6c0.41,0.73,0.91,1.32,1.521,1.79c0.6,0.47,1.27,0.8,2.01,1
				c0.77,0.21,1.52,0.311,2.26,0.311c1.65,0,3.15-0.33,4.521-1.011C117.675,270.225,118.864,269.465,119.904,268.585z"/>
			<path fill="#FFFFFF" d="M94.964,274.135c0.16,0.271,0.08,0.61-0.159,0.79c-1.17,0.87-2.341,1.561-3.5,2.07
				c-1.24,0.55-2.88,0.8-4.96,0.8c-2.78,0-5.021-0.71-6.591-2.21c-1.6-1.52-2.35-3.8-2.35-6.72v-22.66h-5.479
				c-0.171,0-0.32-0.05-0.431-0.17c-0.12-0.11-0.18-0.271-0.18-0.43v-4.681c0-0.16,0.06-0.319,0.18-0.43
				c0.11-0.12,0.26-0.18,0.431-0.18h5.479v-9.061c0-0.16,0.07-0.31,0.18-0.43c0.11-0.11,0.271-0.17,0.431-0.17h5.72
				c0.16,0,0.32,0.06,0.43,0.18c0.12,0.11,0.17,0.26,0.17,0.42v9.061h8.69c0.16,0,0.32,0.06,0.43,0.18
				c0.12,0.11,0.181,0.27,0.181,0.43v4.681c0,0.159-0.061,0.31-0.181,0.43c-0.109,0.11-0.27,0.17-0.43,0.17h-8.75v22.06
				c-0.01,1.67,0.35,2.66,0.79,3c0.55,0.471,1.24,0.71,2.17,0.71c0.85,0,1.65-0.18,2.41-0.54c0.81-0.38,1.53-0.819,2.189-1.34
				c0.141-0.109,0.32-0.14,0.49-0.12c0.17,0.04,0.32,0.141,0.41,0.301L94.964,274.135z"/>
			<path fill="#FFFFFF" d="M67.664,147.185c12.73,0,23.05,10.32,23.05,23.061s-10.319,23.05-23.05,23.05
				c-12.74,0-23.06-10.31-23.06-23.05S54.924,147.185,67.664,147.185z"/>
			<path fill="#FFFFFF" d="M67.395,251.595c0.71,2.28,1.06,4.63,1.06,7.021c0,2.39-0.35,4.729-1.06,7.01
				c-0.72,2.29-1.78,4.35-3.19,6.14c-1.42,1.811-3.21,3.271-5.37,4.37c-2.18,1.11-4.67,1.66-7.48,1.66c-2.8,0-5.31-0.53-7.48-1.62
				l0.27-0.54l-0.29,0.53c-2.1-1.13-3.88-2.61-5.31-4.43c-1.44-1.82-2.52-3.9-3.23-6.221c-0.71-2.31-1.07-4.659-1.07-7.05
				c0-2.39,0.34-4.72,1.03-6.979c0.69-2.28,1.75-4.32,3.19-6.12c1.44-1.79,3.24-3.24,5.36-4.311c2.16-1.1,4.67-1.63,7.53-1.63
				c2.81-0.01,5.3,0.55,7.48,1.66c2.16,1.1,3.95,2.561,5.37,4.36C65.614,247.245,66.675,249.295,67.395,251.595z M61.665,258.545
				c0-1.689-0.21-3.35-0.65-4.979c-0.42-1.62-1.07-3.051-1.95-4.311c-0.87-1.24-1.94-2.22-3.23-2.97c-1.26-0.74-2.74-1.11-4.48-1.11
				c-1.75,0-3.23,0.37-4.49,1.11c-1.29,0.74-2.34,1.729-3.19,2.96c-0.85,1.26-1.49,2.68-1.92,4.29c-0.43,1.6-0.65,3.24-0.65,4.93
				c0,1.73,0.22,3.41,0.65,5.04s1.07,3.07,1.92,4.351c0.9,1.22,1.98,2.21,3.27,2.979c1.26,0.75,2.71,1.14,4.41,1.14
				c1.74,0,3.22-0.39,4.48-1.14c1.28-0.77,2.36-1.78,3.23-3.03c0.88-1.239,1.53-2.67,1.95-4.3
				C61.454,261.875,61.665,260.215,61.665,258.545z"/>
			<path fill="#FFFFFF" d="M41.504,226.515c0.11,0.2,0.09,0.44-0.03,0.631l-17.44,25.56v23.67c0,0.16-0.06,0.31-0.18,0.43
				c-0.11,0.11-0.27,0.181-0.43,0.181h-5.94c-0.16,0-0.32-0.061-0.43-0.181c-0.12-0.12-0.18-0.27-0.18-0.43v-23.6l-16.77-25.63
				c-0.13-0.19-0.14-0.44-0.03-0.631c0.11-0.199,0.31-0.319,0.54-0.319h6.76c0.2,0,0.39,0.1,0.51,0.27l12.73,19.311l13.38-19.32
				c0.12-0.17,0.3-0.26,0.51-0.26h6.46C41.194,226.195,41.404,226.325,41.504,226.515z"/>
		</g>
		<g>
		</g>
	</g>
</g>
</svg>
